<svg width="50" height="50" viewBox="0 0 50 50" fill="none" xmlns="http://www.w3.org/2000/svg">
<path d="M37.4306 0.0198975H12.5297C5.63045 0.0198975 0 5.65035 0 12.5496V37.4902C0 44.3498 5.63045 49.9802 12.5297 49.9802H37.4703C44.3695 49.9802 50 44.3498 50 37.4505V12.5496C49.9604 5.65035 44.3299 0.0198975 37.4306 0.0198975ZM37.391 18.7352C37.391 19.0128 37.391 19.2903 37.391 19.5679C37.391 27.8946 30.9675 37.4902 19.1911 37.4902C15.5829 37.4902 12.2125 36.4592 9.3973 34.6749C9.91277 34.7146 10.3886 34.7542 10.904 34.7542C13.9175 34.7542 16.6535 33.763 18.8343 32.058C16.019 32.0183 13.6796 30.1944 12.8469 27.6963C13.2435 27.7756 13.64 27.8153 14.0365 27.8153C14.6312 27.8153 15.226 27.736 15.7415 27.5774C12.8866 26.9826 10.7058 24.445 10.7058 21.3918V21.3125C11.4988 21.7883 12.5297 22.0659 13.5607 22.1055C11.8557 20.9953 10.7058 19.0524 10.7058 16.8716C10.7058 15.7217 11.023 14.6511 11.5781 13.6995C14.7502 17.506 19.429 20.004 24.7423 20.2816C24.6233 19.8058 24.5837 19.33 24.5837 18.8542C24.5837 15.3649 27.4385 12.5496 30.9675 12.5496C32.7914 12.5496 34.4568 13.303 35.6463 14.5322C37.1134 14.2546 38.4615 13.7392 39.6907 12.9858C39.2149 14.4529 38.184 15.6821 36.8755 16.4751C38.184 16.3165 39.4132 15.9993 40.563 15.4838C39.6907 16.7526 38.6201 17.8629 37.391 18.7352Z" fill="#FBF5F3"/>
</svg>
