<?xml version="1.0" standalone="no"?><svg xmlns="http://www.w3.org/2000/svg" viewBox="0 0 1440 320"><path fill="#0099ff" fill-opacity="1" d="M0,288L21.8,282.7C43.6,277,87,267,131,250.7C174.5,235,218,213,262,218.7C305.5,224,349,256,393,234.7C436.4,213,480,139,524,96C567.3,53,611,43,655,58.7C698.2,75,742,117,785,149.3C829.1,181,873,203,916,186.7C960,171,1004,117,1047,96C1090.9,75,1135,85,1178,112C1221.8,139,1265,181,1309,197.3C1352.7,213,1396,203,1418,197.3L1440,192L1440,320L1418.2,320C1396.4,320,1353,320,1309,320C1265.5,320,1222,320,1178,320C1134.5,320,1091,320,1047,320C1003.6,320,960,320,916,320C872.7,320,829,320,785,320C741.8,320,698,320,655,320C610.9,320,567,320,524,320C480,320,436,320,393,320C349.1,320,305,320,262,320C218.2,320,175,320,131,320C87.3,320,44,320,22,320L0,320Z"></path></svg>